<svg xmlns="http://www.w3.org/2000/svg" viewBox="0 0 512 512"><title>Artboard 101</title><g id="Old_Man" data-name="Old Man"><rect x="341.33333" y="192" width="42.66667" height="64" rx="21.33331" ry="21.33331" style="fill:#cb7956"/><rect x="128" y="192" width="42.66667" height="64" rx="21.33331" ry="21.33331" style="fill:#e29971"/><path d="M192,277.33333v64a21.33334,21.33334,0,0,1-21.33333,21.33334h-64A85.33333,85.33333,0,0,0,21.33333,448v42.66667H490.66667V448a85.33333,85.33333,0,0,0-85.33334-85.33333h-64A21.33334,21.33334,0,0,1,320,341.33333v-64Z" style="fill:#e29971"/><path d="M341.33333,362.66667A21.33356,21.33356,0,0,1,320,341.33333v-64H256v85.33334l21.33333,0V384l-42.66666,0v21.33331a21.33333,21.33333,0,1,0,42.66666,0h85.33334V362.66667Z" style="fill:#cb7956"/><path d="M234.66667,426.66667v64h256V448a85.33333,85.33333,0,0,0-85.33334-85.33333h-64L320,341.33333l-21.33333,21.33334Z" style="fill:#224552"/><polygon points="362.667 426.667 277.333 490.667 256 490.667 256 405.333 298.667 362.667 362.667 362.667 362.667 426.667" style="fill:#062d3c"/><path d="M192,341.33333l21.33333,21.33334,64,64v64h-256V448a85.33333,85.33333,0,0,1,85.33334-85.33333h64Z" style="fill:#345460"/><path d="M64,490.66667H42.66667V448a64.07,64.07,0,0,1,64-64v21.33333A42.70887,42.70887,0,0,0,64,448Z" style="fill:#607a8a"/><polygon points="234.667 384 192 384 192 426.667 277.333 426.667 234.667 384" style="fill:#224552"/><rect x="106.66667" y="362.66667" width="64" height="21.33333" style="fill:#224552"/><rect x="149.33333" y="42.66667" width="213.33333" height="298.66656" rx="106.66656" ry="106.66656" style="fill:#edbda4"/><path d="M320,64.48307v84.85026H277.33333v21.33334H320v42.66659a21.33333,21.33333,0,0,1,21.33333,21.33333v.00008A21.33333,21.33333,0,0,1,320,256H256v64h21.33333v19.18359a106.69065,106.69065,0,0,0,85.33334-104.51692V149.33333C362.66667,114.54948,345.76563,83.95443,320,64.48307Z" style="fill:#e29971"/><polygon points="234.667 234.667 234.667 256 277.333 256 277.333 192 320 192 320 170.667 256 170.667 256 234.667 234.667 234.667" style="fill:#cb7956"/><rect x="298.66667" y="192" width="21.33333" height="21.33333" style="fill:#4c2c1a"/><rect x="192" y="192" width="21.33333" height="21.33333" style="fill:#4c2c1a"/><rect x="234.66667" y="277.33333" width="42.66667" height="21.33333" style="fill:#ce464d"/><rect x="192" y="149.33333" width="64" height="21.33333" style="fill:#e29971"/><rect x="213.33333" y="106.66667" width="85.33333" height="21.33333" style="fill:#e29971"/><rect x="192" y="128" width="128" height="21.33333" style="fill:#f5d9cb"/><rect x="213.33333" y="277.33333" width="21.33333" height="42.66667" style="fill:#e29971"/><rect x="277.33333" y="277.33333" width="21.33333" height="42.66667" style="fill:#cb7956"/><polygon points="192 341.333 170.667 362.667 170.667 405.333 234.667 384 192 341.333" style="fill:#4c6a74"/><path d="M192,106.66667H170.66667A85.43111,85.43111,0,0,1,256,21.33333h21.33333V42.66667H256A64.07,64.07,0,0,0,192,106.66667Z" style="fill:#c4ced3"/><path d="M256,85.33333H234.66667a64.07,64.07,0,0,1,64-64V42.66667A42.70886,42.70886,0,0,0,256,85.33333Z" style="fill:#e0e5e8"/><path d="M362.66667,128H341.33333a42.70886,42.70886,0,0,0-42.66666-42.66667V64A64.07,64.07,0,0,1,362.66667,128Z" style="fill:#e0e5e8"/><rect x="128" y="106.66667" width="42.66667" height="85.33333" rx="21.33331" ry="21.33331" style="fill:#e0e5e8"/><rect x="149.33333" y="149.33333" width="21.33333" height="64" style="fill:#e0e5e8"/><rect x="341.33333" y="106.66667" width="42.66667" height="85.33333" rx="21.33331" ry="21.33331" transform="translate(725.33333 298.66667) rotate(180)" style="fill:#e0e5e8"/><rect x="341.33333" y="149.33333" width="21.33333" height="64" transform="translate(704 362.66667) rotate(-180)" style="fill:#e0e5e8"/><circle cx="245.33333" cy="437.33333" r="10.66667" style="fill:#062d3c"/><polygon points="277.333 384 341.333 405.333 341.333 362.667 320 341.333 277.333 384" style="fill:#345460"/><rect x="256" y="448" width="21.33333" height="42.66667" style="fill:#4c6a74"/></g></svg>