<?xml version="1.0" encoding="UTF-8"?>
<svg version="1.1" xmlns="http://www.w3.org/2000/svg" width="800" height="800">
<path d="M0 0 C264 0 528 0 800 0 C800 264 800 528 800 800 C536 800 272 800 0 800 C0 536 0 272 0 0 Z " fill="#F6F6F6" transform="translate(0,0)"/>
<path d="M0 0 C264 0 528 0 800 0 C800 264 800 528 800 800 C536 800 272 800 0 800 C0 536 0 272 0 0 Z M145 109 C145 120.88 145 132.76 145 145 C133.12 145 121.24 145 109 145 C109 313.3 109 481.6 109 655 C120.88 655 132.76 655 145 655 C145 666.88 145 678.76 145 691 C313.3 691 481.6 691 655 691 C655 679.12 655 667.24 655 655 C666.88 655 678.76 655 691 655 C691 486.7 691 318.4 691 145 C679.12 145 667.24 145 655 145 C655 133.12 655 121.24 655 109 C486.7 109 318.4 109 145 109 Z " fill="#F6F6F6" transform="translate(0,0)"/>
<path d="M0 0 C168.3 0 336.6 0 510 0 C510 11.88 510 23.76 510 36 C521.88 36 533.76 36 546 36 C546 204.3 546 372.6 546 546 C534.12 546 522.24 546 510 546 C510 557.88 510 569.76 510 582 C341.7 582 173.4 582 0 582 C0 570.12 0 558.24 0 546 C-11.88 546 -23.76 546 -36 546 C-36 377.7 -36 209.4 -36 36 C-24.12 36 -12.24 36 0 36 C0 24.12 0 12.24 0 0 Z M37 73 C37 216.88 37 360.76 37 509 C180.88 509 324.76 509 473 509 C473 365.12 473 221.24 473 73 C329.12 73 185.24 73 37 73 Z " fill="#010101" transform="translate(145,109)"/>
<path d="M0 0 C23.76 0 47.52 0 72 0 C72 11.88 72 23.76 72 36 C84.21 36 96.42 36 109 36 C109 47.88 109 59.76 109 72 C132.76 72 156.52 72 181 72 C181 60.12 181 48.24 181 36 C193.21 36 205.42 36 218 36 C218 24.12 218 12.24 218 0 C241.76 0 265.52 0 290 0 C290 23.76 290 47.52 290 72 C278.12 72 266.24 72 254 72 C254 84.21 254 96.42 254 109 C242.12 109 230.24 109 218 109 C218 132.76 218 156.52 218 181 C229.88 181 241.76 181 254 181 C254 193.21 254 205.42 254 218 C265.88 218 277.76 218 290 218 C290 241.76 290 265.52 290 290 C266.24 290 242.48 290 218 290 C218 278.12 218 266.24 218 254 C205.79 254 193.58 254 181 254 C181 242.12 181 230.24 181 218 C157.24 218 133.48 218 109 218 C109 229.88 109 241.76 109 254 C96.79 254 84.58 254 72 254 C72 265.88 72 277.76 72 290 C48.24 290 24.48 290 0 290 C0 266.24 0 242.48 0 218 C11.88 218 23.76 218 36 218 C36 205.79 36 193.58 36 181 C47.88 181 59.76 181 72 181 C72 157.24 72 133.48 72 109 C60.12 109 48.24 109 36 109 C36 96.79 36 84.58 36 72 C24.12 72 12.24 72 0 72 C0 48.24 0 24.48 0 0 Z " fill="#000000" transform="translate(255,255)"/>
</svg>
