<svg xmlns="http://www.w3.org/2000/svg" viewBox="0 0 512 512"><title>Artboard 116</title><g id="Old_Business_Woman" data-name="Old Business Woman"><path d="M106.66667,192H405.33333a0,0,0,0,1,0,0v85.33333A85.33333,85.33333,0,0,1,320,362.66667H192a85.33333,85.33333,0,0,1-85.33333-85.33333V192A0,0,0,0,1,106.66667,192Z" style="fill:#e0e5e8"/><path d="M298.66667,192V362.66667H320a85.33339,85.33339,0,0,0,85.33333-85.33334V192Z" style="fill:#c4ced3"/><rect x="320" y="298.66667" width="21.33333" height="42.66667" style="fill:#a2b2ba"/><rect x="128" y="224" width="21.33333" height="74.66667" style="fill:#c4ced3"/><rect x="362.66667" y="224" width="21.33333" height="74.66667" style="fill:#a2b2ba"/><rect x="341.33333" y="192" width="42.66667" height="64" rx="21.33331" ry="21.33331" style="fill:#cb7956"/><rect x="128" y="192" width="42.66667" height="64" rx="21.33331" ry="21.33331" style="fill:#e29971"/><path d="M192,277.33333v64a21.33334,21.33334,0,0,1-21.33333,21.33334h-64A85.33333,85.33333,0,0,0,21.33333,448v42.66667H490.66667V448a85.33333,85.33333,0,0,0-85.33334-85.33333h-64A21.33334,21.33334,0,0,1,320,341.33333v-64Z" style="fill:#e29971"/><rect x="149.33333" y="405.33333" width="85.33333" height="42.66667" rx="21.33331" ry="21.33331" style="fill:#edbda4"/><circle cx="213.33333" cy="426.66667" r="21.33333" style="fill:#f5d9cb"/><path d="M341.33333,362.66667A21.33356,21.33356,0,0,1,320,341.33333v-64H234.66667v128a21.33333,21.33333,0,1,0,42.66666,0h85.33334V362.66667Z" style="fill:#cb7956"/><path d="M362.66667,490.66667H149.33333V448S192,469.33333,256,469.33333,362.66667,448,362.66667,448Z" style="fill:#caecf6"/><path d="M192,462.04557v28.6211h21.33333v-24.651C205.70313,464.85417,198.44922,463.53646,192,462.04557Z" style="fill:#95daec"/><path d="M106.66667,362.66667h64a0,0,0,0,1,0,0v128a0,0,0,0,1,0,0H21.33333a0,0,0,0,1,0,0V448A85.33333,85.33333,0,0,1,106.66667,362.66667Z" style="fill:#345460"/><path d="M192,341.33333s-64,21.33334-85.33333,85.33334L149.33333,448l-42.66666,42.66667H192Z" style="fill:#4c6a74"/><path d="M341.33333,362.66667H490.66667a0,0,0,0,1,0,0v128a0,0,0,0,1,0,0h-64a85.33333,85.33333,0,0,1-85.33333-85.33333V362.66667A0,0,0,0,1,341.33333,362.66667Z" transform="translate(832 853.33333) rotate(-180)" style="fill:#224552"/><path d="M341.33333,362.66667S384,384,426.66667,426.66667c32,32,42.66666,64,42.66666,64h-128Z" style="fill:#062d3c"/><path d="M64,490.66667H42.66667V448a64.07,64.07,0,0,1,64-64v21.33333A42.71555,42.71555,0,0,0,64,448Z" style="fill:#607a8a"/><path d="M320,341.33333s64,21.33334,85.33333,85.33334L362.66667,448l42.66666,42.66667H320Z" style="fill:#345460"/><rect x="170.66667" y="362.66667" width="21.33333" height="128" style="fill:#345460"/><rect x="320" y="362.66667" width="21.33333" height="128" style="fill:#4c6a74"/><rect x="149.33333" y="42.66667" width="213.33333" height="298.66656" rx="106.66656" ry="106.66656" style="fill:#edbda4"/><path d="M320,64.48307v84.85026H277.33333v21.33334H320v42.66659a21.33333,21.33333,0,0,1,21.33333,21.33333v.00008A21.33333,21.33333,0,0,1,320,256H256v64h21.33333v19.18359a106.69065,106.69065,0,0,0,85.33334-104.51692V149.33333C362.66667,114.54948,345.76563,83.95443,320,64.48307Z" style="fill:#e29971"/><polygon points="234.667 234.667 234.667 256 277.333 256 277.333 192 320 192 320 170.667 256 170.667 256 234.667 234.667 234.667" style="fill:#cb7956"/><rect x="298.66667" y="192" width="21.33333" height="21.33333" style="fill:#4c2c1a"/><rect x="192" y="192" width="21.33333" height="21.33333" style="fill:#4c2c1a"/><rect x="234.66667" y="277.33333" width="42.66667" height="21.33333" style="fill:#ce464d"/><rect x="192" y="149.33333" width="64" height="21.33333" style="fill:#e29971"/><rect x="213.33333" y="106.66667" width="85.33333" height="21.33333" style="fill:#e29971"/><rect x="192" y="128" width="128" height="21.33333" style="fill:#f5d9cb"/><rect x="213.33333" y="277.33333" width="21.33333" height="42.66667" style="fill:#e29971"/><rect x="277.33333" y="277.33333" width="21.33333" height="42.66667" style="fill:#cb7956"/><path d="M256,106.66667v.00006a63.99994,63.99994,0,0,1-63.99994,63.99994H192a42.66662,42.66662,0,0,0-42.66663,42.66662v21.33338L106.66667,256V170.66652A149.33319,149.33319,0,0,1,255.99985,21.33333h.0003A149.33319,149.33319,0,0,1,405.33333,170.66652V256l-42.66666-21.33333V213.33323A106.66656,106.66656,0,0,0,256.00011,106.66667Z" style="fill:#e0e5e8"/><path d="M254.98307,116.75521c-.29427,1.76172-.71093,3.72526-1.20442,5.77734C254.26562,120.63021,254.66927,118.72135,254.98307,116.75521Z" style="fill:#e0e5e8"/><path d="M149.33333,213.33333H128a64.07,64.07,0,0,1,64-64,42.71555,42.71555,0,0,0,42.66667-42.66666H256a64.07,64.07,0,0,1-64,64A42.71555,42.71555,0,0,0,149.33333,213.33333Z" style="fill:#c4ced3"/><path d="M149.33333,170.66667H128a128.14,128.14,0,0,1,128-128V64A106.79223,106.79223,0,0,0,149.33333,170.66667Z" style="fill:#f2f4f5"/><path d="M384,213.33333H362.66667A106.79223,106.79223,0,0,0,256,106.66667V85.33333A128.14,128.14,0,0,1,384,213.33333Z" style="fill:#a2b2ba"/><rect x="277.33333" y="42.66667" width="21.33333" height="42.66667" style="fill:#f2f4f5"/></g></svg>