<svg xmlns="http://www.w3.org/2000/svg" viewBox="0 0 512 512"><title>Artboard 140</title><g id="Sport_Man" data-name="Sport Man"><rect x="341.33333" y="192" width="42.66667" height="64" rx="21.33331" ry="21.33331" style="fill:#cb7956"/><rect x="128" y="192" width="42.66667" height="64" rx="21.33331" ry="21.33331" style="fill:#e29971"/><path d="M192,277.33333v64a21.33334,21.33334,0,0,1-21.33333,21.33334h-64A85.33333,85.33333,0,0,0,21.33333,448v42.66667H490.66667V448a85.33333,85.33333,0,0,0-85.33334-85.33333h-64A21.33334,21.33334,0,0,1,320,341.33333v-64Z" style="fill:#e29971"/><rect x="405.33333" y="426.66667" width="42.66667" height="64" style="fill:#cb7956"/><rect x="149.33333" y="405.33333" width="85.33333" height="42.66667" rx="21.33331" ry="21.33331" style="fill:#edbda4"/><circle cx="213.33333" cy="426.66667" r="21.33333" style="fill:#f5d9cb"/><path d="M341.33333,362.66667A21.33356,21.33356,0,0,1,320,341.33333v-64H256v85.33334h21.33333V384H234.66667v21.33333a21.33333,21.33333,0,1,0,42.66666,0h85.33334V362.66667Z" style="fill:#cb7956"/><rect x="149.33333" y="42.66667" width="213.33333" height="298.66656" rx="106.66656" ry="106.66656" style="fill:#edbda4"/><path d="M320,64.48307v84.85026H277.33333v21.33334H320v42.66659a21.33333,21.33333,0,0,1,21.33333,21.33333v.00008A21.33333,21.33333,0,0,1,320,256H256v64h21.33333v19.18359a106.69065,106.69065,0,0,0,85.33334-104.51692V149.33333C362.66667,114.54948,345.76562,83.95443,320,64.48307Z" style="fill:#e29971"/><polygon points="234.667 234.667 234.667 256 277.333 256 277.333 192 320 192 320 170.667 256 170.667 256 234.667 234.667 234.667" style="fill:#cb7956"/><rect x="298.66667" y="192" width="21.33333" height="21.33333" style="fill:#4c2c1a"/><rect x="192" y="192" width="21.33333" height="21.33333" style="fill:#4c2c1a"/><rect x="234.66667" y="277.33333" width="42.66667" height="21.33333" style="fill:#ce464d"/><path d="M426.66667,362.66667H341.33333a85.33333,85.33333,0,1,1-170.66666,0h-64v128h320Z" style="fill:#c6262d"/><path d="M64,490.66667H42.66667V448a64.07,64.07,0,0,1,64-64v21.33333A42.70887,42.70887,0,0,0,64,448Z" style="fill:#edbda4"/><path d="M256,490.66667V469.33333A106.79223,106.79223,0,0,0,362.66667,362.66667H384A128.14,128.14,0,0,1,256,490.66667Z" style="fill:#ab0008"/><path d="M256,128s0-21.33333,21.33333-21.33333S298.66667,128,298.66667,128c0,21.33333,21.33333,21.33333,21.33333,21.33333s21.33333,0,21.33333,21.33334v42.66664l21.33334,0V192S384,192,384,170.66667h0s21.33333,0,21.33333-21.33334c0,0-21.33333,0-21.33333-21.33333,0-42.66667-42.66667-106.66667-128-106.66667-64,0-128,42.66667-128,128C128,192,149.33331,192,149.33331,192l0,21.33333,21.33334,0V170.66667S192,170.66667,192,149.33333,213.33333,128,213.33333,128s0,21.33333,21.33334,21.33333C234.66667,149.33333,234.66667,128,256,128Z" style="fill:#8f492b"/><rect x="128" y="362.66667" width="42.66667" height="21.33333" style="fill:#d7686d"/><rect x="384" y="362.66667" width="42.66667" height="21.33333" style="fill:#ce464d"/><path d="M362.66667,160a31.88653,31.88653,0,0,0-31.80209-32H320.19792L320,117.33333c-.0625-5.29166-1.88542-32-32-32H277.33333V74.66667c0-30.11459-26.70833-31.9375-32.0625-32-30.05208,0-31.875,26.70833-31.9375,32.0625l-.125,10.54166-10.54166.0625c-8.59375,0-10.54167,5.86459-10.66667,10.79167l-.26042,10.39583-10.40625.14584c-15.55208,0-32,16.44791-32,32H128c0-24.32292,20.39583-47.46875,44.14583-52.375,2.64584-8.82292,9.05209-17.77084,20.69792-21.02084,3.27083-18.875,16.72917-43.9375,52.48958-43.9375,16.90625,0,47.60417,9.35417,52.625,43.375,28.14584,4.15625,39.40625,25.89584,42.45834,42.84375A53.22166,53.22166,0,0,1,384,159.80208Z" style="fill:#cb7956"/><path d="M234.66667,96H213.33333c-.125-4.80208-2.07291-10.66667-10.66666-10.66667V64C226.14583,64,234.66667,83.13542,234.66667,96Z" style="fill:#cb7956"/><rect x="149.33333" y="170.66667" width="21.33333" height="21.33333" style="fill:#cb7956"/><rect x="341.33333" y="192" width="21.33333" height="21.33333" style="fill:#cb7956"/></g></svg>