<svg xmlns="http://www.w3.org/2000/svg" viewBox="0 0 512 512"><title>Artboard 134</title><g id="Afro_Male_Scientist" data-name="Afro Male Scientist"><rect x="341.33333" y="192" width="42.66667" height="64" rx="21.33331" ry="21.33331" style="fill:#361200"/><rect x="128" y="192" width="42.66667" height="64" rx="21.33331" ry="21.33331" style="fill:#552a1f"/><path d="M192,277.33333v64a21.33334,21.33334,0,0,1-21.33333,21.33334h-64A85.33333,85.33333,0,0,0,21.33333,448v42.66667H490.66667V448a85.33333,85.33333,0,0,0-85.33334-85.33333h-64A21.33334,21.33334,0,0,1,320,341.33333v-64Z" style="fill:#552a1f"/><path d="M341.33333,362.66667A21.33356,21.33356,0,0,1,320,341.33333v-64H256v85.33334l21.33333,0V384l-42.66666,0v21.33331a21.33333,21.33333,0,1,0,42.66666,0h85.33334V362.66667Z" style="fill:#361200"/><path d="M234.66667,426.66667v64h256V448a85.33333,85.33333,0,0,0-85.33334-85.33333h-64L320,341.33333l-21.33333,21.33334Z" style="fill:#088156"/><polygon points="362.667 426.667 277.333 490.667 256 490.667 256 405.333 298.667 362.667 362.667 362.667 362.667 426.667" style="fill:#086b47"/><path d="M192,341.33333l21.33333,21.33334,64,64v64h-256V448a85.33333,85.33333,0,0,1,85.33334-85.33333h64Z" style="fill:#339773"/><path d="M170.66667,341.33333H192l-21.33333,21.33334v128H21.33333V448a85.33333,85.33333,0,0,1,85.33334-85.33333h42.66669Z" style="fill:#caecf6"/><path d="M320,341.33333l21.33333,21.33329v128H490.66667V448a85.33333,85.33333,0,0,0-85.33334-85.33333H362.66664l-21.33331-21.33334Z" style="fill:#95daec"/><path d="M362.66664,362.66667S448,384,469.33333,490.66667H362.66666Z" style="fill:#72cee6"/><path d="M341.33333,341.33333s64,21.33334,85.33334,85.33334L384,448l42.66667,42.66667H341.33333V341.33333Z" style="fill:#caecf6"/><path d="M170.66667,341.33333s-64,21.33334-85.33334,85.33334L128,448,85.33333,490.66667h85.33334V341.33333Z" style="fill:#e7f6fa"/><polygon points="149.333 384 170.667 362.667 170.667 490.667 149.333 490.667 149.333 384" style="fill:#b4e5f2"/><polygon points="341.333 362.667 362.667 384 362.667 490.667 341.333 490.667 341.333 362.667" style="fill:#e7f6fa"/><path d="M64,490.66667H42.66667V448a64.07,64.07,0,0,1,64-64v21.33333A42.70887,42.70887,0,0,0,64,448Z" style="fill:#e7f6fa"/><polygon points="234.667 384 192 384 192 426.667 277.333 426.667 234.667 384" style="fill:#088156"/><rect x="149.33333" y="42.66667" width="213.33333" height="298.66656" rx="106.66656" ry="106.66656" style="fill:#8f492b"/><path d="M320,64.48307v84.85026H277.33333v21.33334H320v42.66659a21.33333,21.33333,0,0,1,21.33333,21.33333v.00008A21.33333,21.33333,0,0,1,320,256H256v64h21.33333v19.18359a106.69065,106.69065,0,0,0,85.33334-104.51692V149.33333C362.66667,114.54948,345.76563,83.95443,320,64.48307Z" style="fill:#552a1f"/><path d="M149.33333,213.33333h21.33334v-128S192,64,256,64s85.33333,21.33333,85.33333,21.33333v128h21.33331L362.66669,192,384,170.66667V149.33321A127.99987,127.99987,0,0,0,256.00013,21.33333h-.00026A127.99987,127.99987,0,0,0,128,149.33321v21.33346L149.33331,192Z" style="fill:#a2b2ba"/><path d="M256,21.33333a128.80171,128.80171,0,0,0-15.50651,1.02995c-3.27344,6.7487-5.82682,14.4336-5.82682,22.444a44.113,44.113,0,0,0,5.1302,19.86719C244.974,64.34766,250.11979,64,256,64c64,0,85.33333,21.33333,85.33333,21.33333v128h21.33334V192L384,170.66667V149.33333A127.99966,127.99966,0,0,0,256,21.33333Z" style="fill:#607a8a"/><rect x="149.33333" y="85.33333" width="21.33333" height="21.33333" style="fill:#f2f4f5"/><rect x="149.33333" y="128" width="21.33333" height="21.33333" style="fill:#f2f4f5"/><rect x="341.33333" y="85.33333" width="21.33333" height="21.33333" style="fill:#a2b2ba"/><rect x="341.33333" y="128" width="21.33333" height="21.33333" style="fill:#a2b2ba"/><circle cx="202.66667" cy="224" r="32" style="fill:#c4eaf5"/><circle cx="309.33333" cy="224" r="32" style="fill:#c4eaf5"/><polygon points="234.667 234.667 234.667 256 277.333 256 277.333 192 320 192 320 170.667 256 170.667 256 234.667 234.667 234.667" style="fill:#361200"/><rect x="298.66667" y="192" width="21.33333" height="21.33333" style="fill:#290300"/><rect x="192" y="192" width="21.33333" height="21.33333" style="fill:#290300"/><rect x="234.66667" y="277.33333" width="42.66667" height="21.33335" style="fill:#ce464d"/><rect x="192" y="149.33333" width="64" height="21.33333" style="fill:#552a1f"/><rect x="213.33333" y="106.66667" width="85.33333" height="21.33333" style="fill:#552a1f"/><rect x="192" y="128" width="128" height="21.33333" style="fill:#cb7956"/><rect x="213.33333" y="277.33333" width="21.33333" height="42.66667" style="fill:#552a1f"/><rect x="277.33333" y="277.33333" width="21.33333" height="42.66667" style="fill:#361200"/><polygon points="192 341.333 170.667 362.667 170.667 405.333 234.667 384 192 341.333" style="fill:#57a98c"/><circle cx="245.33333" cy="437.33333" r="10.66667" style="fill:#004c33"/><polygon points="277.333 384 341.333 405.333 341.333 362.667 320 341.333 277.333 384" style="fill:#339773"/><rect x="256" y="448" width="21.33333" height="42.66667" style="fill:#57a98c"/></g></svg>